<svg width="24" height="24" viewBox="0 0 24 24" fill="none" xmlns="http://www.w3.org/2000/svg">
<path d="M2.35288 3.7995C3.36639 3.7541 4.49247 3.81675 5.51369 3.7912C5.74159 3.78549 5.96308 3.81003 6.12128 3.98253C6.32638 4.20617 6.48451 5.65664 6.48006 5.91068C7.15761 5.87571 8.04325 5.89995 8.73341 5.89988L12.892 5.89978L17.3289 5.90006C18.0704 5.90011 18.8127 5.90374 19.554 5.90185C20.3825 5.89974 20.0244 6.96258 19.937 7.48221L19.6254 9.32693L19.1519 12.1275C19.0671 12.6337 18.9886 13.1402 18.8948 13.6456C18.8471 13.9025 18.7291 14.165 18.4308 14.1938C18.1231 14.2234 17.7909 14.2097 17.4794 14.2093L15.6535 14.2065L9.30104 14.2073L7.8198 14.206C7.52458 14.2057 7.15658 14.1861 6.86994 14.2354C6.41591 14.3133 6.10529 14.758 6.08933 15.1969C6.0764 15.4759 6.17748 15.748 6.3693 15.9509C6.55888 16.1518 6.7322 16.2242 6.99749 16.2445C7.38925 16.2744 7.81633 16.2608 8.21165 16.2607L10.5307 16.2603L16.4305 16.2596C17.4861 16.2595 18.6117 16.2398 19.6632 16.267C19.989 16.3687 20.0362 16.4915 20.1297 16.8005C20.0695 16.9863 19.9714 17.2565 19.7358 17.2859C19.4073 17.3114 19.0535 17.314 18.723 17.3043C18.2676 17.291 17.7564 17.3283 17.3071 17.2837C17.952 17.7707 18.3511 18.3096 18.2541 19.1577C18.2015 19.6178 17.9482 20.0866 17.5817 20.3723C17.1808 20.6901 16.6679 20.8309 16.1609 20.7625C15.676 20.6953 15.2366 20.4408 14.9369 20.0536C14.6336 19.6548 14.5056 19.1507 14.5818 18.6572C14.6796 18.0236 15.0125 17.6624 15.5004 17.2936C14.5922 17.3353 13.5004 17.2893 12.5746 17.3018C12.0517 17.3089 10.9326 17.3307 10.4595 17.2844C10.7135 17.4816 10.9453 17.6662 11.1234 17.9393C11.3869 18.3494 11.4772 18.8472 11.3744 19.3238C11.2738 19.802 10.9856 20.2198 10.5743 20.4837C10.16 20.7499 9.65758 20.8424 9.17561 20.7412C8.71382 20.6423 8.26569 20.3398 8.00896 19.9421C7.73854 19.5225 7.64683 19.0124 7.75419 18.5249C7.86988 17.9965 8.22426 17.5771 8.67273 17.2898C8.16749 17.3271 6.84908 17.3582 6.40391 17.1887C5.87094 16.9858 5.43273 16.6036 5.19972 16.0781C4.96619 15.5515 4.96208 15.0003 5.17122 14.4661C5.42329 13.8224 5.92136 13.479 6.53235 13.213C6.45097 12.9889 6.36796 12.2838 6.33025 12.0196L6.02371 9.89906L5.50855 6.42063C5.44555 5.98695 5.31913 5.28898 5.28536 4.88358L3.50031 4.88595C3.08331 4.88703 2.51219 4.93901 2.12676 4.77061C1.96692 4.70077 1.90689 4.49909 1.86328 4.34222C1.93885 4.03367 2.03944 3.89353 2.35288 3.7995ZM18.0137 12.5336L18.6389 8.8216C18.7303 8.2807 18.8375 7.47277 18.9574 6.95965C18.3548 6.93291 17.701 6.94446 17.0945 6.94442L14.1387 6.94432C11.7523 6.94435 9.30812 6.91683 6.92575 6.94952L6.65697 6.94931L7.31629 11.4324L7.48176 12.5579C7.50562 12.7173 7.56069 12.9989 7.55842 13.1444L14.4475 13.1451C15.5737 13.1451 16.7787 13.1234 17.8997 13.1494C17.9481 12.9382 17.9683 12.7339 18.0137 12.5336ZM16.5075 19.7194C16.9464 19.6673 17.2599 19.2691 17.2076 18.8303C17.1552 18.3914 16.7569 18.0781 16.318 18.1307C15.8795 18.1832 15.5665 18.5812 15.6188 19.0198C15.6711 19.4583 16.0689 19.7715 16.5075 19.7194ZM9.65938 19.7185C10.0977 19.6653 10.4101 19.267 10.3573 18.8286C10.3045 18.3903 9.90641 18.0776 9.46797 18.1301C9.0291 18.1827 8.71607 18.5812 8.76894 19.02C8.82182 19.4589 9.22058 19.7716 9.65938 19.7185Z" fill="#2D1F11"/>
</svg>
